Filename:
The Casino Job 2009 FS DVDRip XviD AC3-LB
 
http://www.imdb.com/title/tt0831279/

Video
ID                               : 0
Format                           : MPEG-4 Visual
Format profile                   : AdvancedSimple@L5
Format settings, BVOP            : Yes
Format settings, QPel            : No
Format settings, GMC             : No warppoints
Format settings, Matrix          : Custom
Codec ID                         : XVID
Codec ID/Hint                    : XviD
Duration                         : 1h 21mn
Bit rate                         : 1 942 Kbps
Width                            : 688 pixels
Height                           : 512 pixels
Display aspect ratio             : 4:3
Frame rate                       : 29.970 fps
Resolution                       : 24 bits
Colorimetry                      : 4:2:0
Scan type                        : Progressive
Bits/(Pixel*Frame)               : 0.184
Stream size                      : 1.11 GiB (81%)
Writing library                  : XviD 1.2.1 (UTC 2008-12-04)

Audio
ID                               : 1
Format                           : AC-3
Format/Info                      : Audio Coding 3
Codec ID                         : 2000
Duration                         : 1h 21mn
Bit rate mode                    : Constant
Bit rate                         : 448 Kbps
Channel(s)                       : 5 channels
Channel positions                : Front: L C R, Surround: L R
Sampling rate                    : 48.0 KHz
Stream size                      : 262 MiB (19%)
Alignment                        : Split accross interleaves
Interleave, duration             : 96 ms (2.88 video frames)
Interleave, preload duration     : 96 ms


Plot
After she's sexually assaulted by Las Vegas casino owner Barry Kaylin (Dean Mauro), exotic dancer Jennifer (Amylia Joiner) and four beautiful friends scheme to get revenge by robbing one of Kaylin's resorts. But as their carefully laid plans unfold, Jennifer discovers that one of her crew is hiding a secret that could betray them all.
